<svg version="1.2" xmlns="http://www.w3.org/2000/svg" viewBox="0 0 346 346" width="346" height="346">
	<title>ping-pong-svg</title>
	<style>
		.s0 { fill: #fefefa } 
	</style>
	<path id="Path 0" fill-rule="evenodd" class="s0" d="m173 0.1c9.4-0.1 13.3 0.4 21 2.5 5.2 1.4 13.6 4.5 18.5 6.9 4.9 2.4 12.6 7 17 10.3 4.4 3.2 11.8 9.9 16.4 14.8 4.6 4.9 11.2 13.2 14.7 18.4 3.4 5.2 8.3 13.8 10.7 19 2.5 5.2 5.6 13.1 7 17.5 1.4 4.4 3.4 11.8 4.4 16.5 1.4 6.5 1.8 12.5 1.7 25-0.1 14.5-0.4 17.7-2.7 26.5-1.6 6-5.1 14.8-8.6 22-3.6 7.1-8.7 15.4-12.6 20.3-3.6 4.5-6.4 8.3-6.2 8.5 0.1 0.2 12.6 11.3 27.7 24.8 22.4 19.9 28 25.4 30 29.4 1.3 2.8 2.6 7.5 2.8 10.5 0.3 3.6-0.2 7.4-1.3 11-1.5 4.6-3.5 7.2-11.9 15.8-7.1 7.3-11.7 11.1-15.6 13-4.2 2-7 2.6-11.5 2.5-4.7 0-7.3-0.7-12-3.2-5.2-2.7-9.3-6.8-30.5-30.6-13.5-15-24.7-27.2-25-27-0.3 0.2 0.3 15.1 1.3 33.2 1.8 31.1 1.8 33.1 0.2 38.3-1.3 4-3.1 6.8-6.9 10.6-4 4.1-6.5 5.6-12.1 7.4-6.1 2-8.5 2.2-18.5 1.8-10.2-0.3-12.2-0.7-17.9-3.3-3.5-1.7-7.8-4.6-9.4-6.5-1.7-1.9-3.9-5.3-4.9-7.5-1.3-2.9-1.8-6.5-1.8-13 0-4.9 0.4-16.4 1-25.5 0.5-9.1 1.2-19.4 2-29.5l-8.3-1.3c-4.5-0.8-12.5-2.7-17.7-4.4-5.2-1.6-13.3-5-18-7.5-4.7-2.4-11-6.3-14-8.6-3-2.3-8.5-7.1-12.3-10.7-3.8-3.6-9.1-9.4-11.7-13-2.6-3.6-6.6-9.7-8.8-13.5-2.3-3.8-6-11.5-8.3-17-2.3-5.5-5.4-14.9-7-21-1.5-6.1-3.3-16.6-4-23.5-0.9-9.6-0.9-14.9-0.1-23 0.7-5.8 2.1-14.1 3.3-18.5 1.1-4.4 3.6-11.4 5.6-15.5 1.9-4.1 5.4-10.4 7.8-14 2.3-3.6 7.6-9.7 11.6-13.5 4.1-3.9 11.2-9.3 15.9-12 4.7-2.7 13-6.5 18.5-8.3 8.8-3 10.9-4.2 18-10.3 4.4-3.8 11.4-8.9 15.5-11.3 4.1-2.5 10.7-5.7 14.5-7.1 3.8-1.5 10.2-3.5 14-4.5 4.7-1.2 10.9-1.9 18.5-1.9zm-18 20.5c-3 0.9-8.6 3-12.3 4.7-3.7 1.8-6.8 3.5-6.7 3.9 0 0.5 1.1 0.8 2.5 0.8 1.4 0 7.6 0.9 13.8 1.9 6.1 1.1 15.5 3.4 20.7 5.1 5.2 1.8 14.6 5.8 20.9 8.9 6.2 3.1 15 8.4 19.5 11.7 4.4 3.4 11.6 9.8 15.9 14.3 4.2 4.4 9.7 11.1 12.1 14.8 2.4 3.8 5.7 9.5 7.3 12.8 1.7 3.3 4.2 9.6 5.6 14 1.4 4.4 3.1 10.5 3.9 13.5 0.8 3.5 1.3 11.7 1.3 22.3v16.9c2.9-6.7 4.7-13 5.7-18.2 1.6-7.6 1.9-11.9 1.5-22-0.4-8.5-1.3-15.5-3-22-1.3-5.2-4.1-13.5-6.1-18.5-2-5-5.8-12.5-8.4-16.8-2.6-4.4-7.5-11.3-10.8-15.5-3.4-4.3-9.5-10.5-13.5-14-4.1-3.5-10.8-8.3-14.9-10.6-4.1-2.4-11.1-5.6-15.5-7.1-6.2-2.1-10.3-2.8-18-3-5.5-0.2-11.3-0.1-13 0.1-1.6 0.3-5.5 1.2-8.5 2zm-57.5 32c-2.7 0.9-7.2 2.8-10 4.1-2.7 1.4-8.3 5-12.4 8.2-4 3.1-9.4 8.3-11.9 11.6-2.5 3.3-6 9.2-7.8 13-1.8 3.8-4.2 10.8-5.3 15.5-1.1 4.7-2.3 13-2.7 18.5-0.4 6.7-0.1 13.4 1 20.5 0.8 5.8 2.7 14.6 4.1 19.5 1.4 4.9 4.3 12.8 6.3 17.5 2.1 4.7 6.3 12.3 9.4 17 3.1 4.7 7.8 10.9 10.5 13.9 2.6 3 8.4 8.2 12.8 11.4 4.4 3.3 11.6 7.7 16 9.9 4.4 2.1 11 4.6 14.7 5.6l6.8 1.7 111.1-111c-2.6-10.1-4.6-15.7-6.1-19-1.4-3.3-4.8-9.4-7.4-13.5-2.7-4.1-8.3-10.9-12.5-15.1-4.2-4.2-11.2-10-15.6-12.8-4.4-2.9-11.1-6.8-15-8.6-3.8-1.9-11-4.7-16-6.4-4.9-1.6-13-3.7-18-4.6-5.1-0.9-14.1-1.5-21-1.4-6.6 0-15.1 0.7-19 1.5-3.8 0.8-9.2 2.1-12 3zm56 189.4c6.2 0 11.6-0.9 16-1.9 4.4-1.1 11.5-3.3 15.8-5 5.8-2.3 9.3-3.1 14.2-3.1 3.6 0 8 0.6 9.8 1.3 1.7 0.8 5 2.9 7.1 4.8 2.2 1.9 14.8 15.5 28.1 30.4 13.3 14.9 24.9 27.3 25.8 27.7 0.9 0.5 3.2 0.8 5 0.8 1.9 0 4.3-0.9 5.8-2.3 1.5-1.2 5.6-5.5 9.3-9.5 4.7-5.1 6.6-8 6.6-10 0.1-1.5-1-4-2.2-5.6-1.3-1.7-14.8-14.1-30-27.8-23-20.5-28.3-25.7-30.5-30.1-2-4-2.7-6.7-2.7-11.7 0-5.1 0.7-8.5 3.6-16 2-5.2 4.4-13.6 5.3-18.5 0.9-5 1.5-9.6 1.2-10.3-0.2-0.7-20.1 18.5-44.3 42.8zm14.5 16.5c-5.2 1-9.6 1.9-9.8 1.9-0.1 0-0.9 10.4-1.7 23.1-0.8 12.6-1.5 26.3-1.5 30.5-0.1 6.9 0.2 7.7 2.7 10.3 2.8 2.7 2.9 2.7 15.6 2.7h12.9l6.2-6.5c-1-13.2-1.8-27.2-2.4-39.5-0.6-12.4-1.3-23.5-1.6-24.8-0.2-1.2-1-2.2-1.6-2.1-0.7 0-3.1 0.7-5.3 1.4-2.2 0.7-8.3 2.1-13.5 3zm-103.5-6.9c3.4 0.3 8.6 1.7 11.9 3.2 3.7 1.7 7.7 4.6 10.7 7.9 2.7 2.9 5.9 7.4 7.2 10 1.8 3.9 2.2 6.5 2.2 14.3 0 8.2-0.3 10.2-2.6 15-1.7 3.4-5 7.5-8.5 10.8-3.7 3.3-8 6.1-11.4 7.3-4.3 1.6-7.3 2-14 1.7-7.1-0.3-9.5-0.8-14.4-3.3-3.2-1.7-7.6-4.9-9.7-7.3-2.1-2.3-5.1-6.6-6.5-9.5-1.6-3.3-2.8-7.6-3.1-11.7-0.5-5-0.1-8.3 1.6-13.8 1.7-5.9 3.1-8.3 7.4-12.9 2.8-3.1 7.5-6.7 10.2-8.1 2.8-1.3 6.8-2.8 9-3.3 2.2-0.4 6.7-0.6 10-0.3zm-16.7 24c-1 1.6-2.4 4.4-3 6.4-0.6 1.9-0.8 5.3-0.4 7.5 0.3 2.2 1.7 5.7 3.1 7.7 1.4 2.1 4.1 4.4 6 5.3 1.9 0.8 5.6 1.5 8.3 1.5 2.6 0 6.3-0.8 8.2-1.8 1.9-0.9 4.5-3.3 5.8-5.2 1.2-2 2.5-5.1 2.9-7 0.3-2 0.3-4.9 0-6.5-0.4-1.7-1.7-4.6-2.9-6.5-1.3-2-4.3-4.6-6.8-5.8-2.5-1.2-5.8-2.2-7.5-2.2-1.6 0-5 0.8-7.4 1.9-2.4 1-5.3 3.1-6.3 4.7zm61.7-201.6h12.3c6.7 0 12.2 0.3 12.2 0.7 0 0.4-11.3 12.2-49.9 51.8l51.9 0.5v49l-26.5-0.5-0.5-26.5h-53l-0.5-21.5zm64.5 0h26v27.5l-26 26v26.5h-27v-26.5l27-27zm-27 0h13c7.2 0 13 0.3 13 0.7 0 0.4-5.5 6.3-12.2 13-6.8 6.7-12.6 12-13 11.7-0.4-0.2-0.8-6-0.8-12.9zm52.8 54c0.1 0 0.2 5.8 0.2 26h-11.7c-6.5 0-12.1-0.3-12.5-0.7-0.5-0.5 4.7-6.3 11.4-13.1 6.8-6.7 12.4-12.2 12.6-12.2z"/>
</svg>